{
  "accessors": [
    {
      "bufferView": 2,
      "componentType": 5126,
      "count": 542,
      "max": [
        0.31793200969696045,
        0.4059619903564453,
        0.7544140219688416
      ],
      "min": [
        -0.31793200969696045,
        -0.5368279814720154,
        -0.000593287986703217
      ],
      "type": "VEC3"
    },
    {
      "bufferView": 2,
      "byteOffset": 6504,
      "componentType": 5126,
      "count": 542,
      "max": [
        0.9994104504585266,
        0.9922017455101013,
        0.9963700175285339
      ],
      "min": [
        -0.9994105100631714,
        -0.9924045205116272,
        -0.9986389875411987
      ],
      "type": "VEC3"
    },
    {
      "bufferView": 1,
      "componentType": 5126,
      "count": 542,
      "max": [
        0.9851700067520142,
        0.9796860218048096
      ],
      "min": [
        0.018206100910902023,
        0.028331000357866287
      ],
      "type": "VEC2"
    },
    {
      "bufferView": 0,
      "componentType": 5125,
      "count": 1638,
      "type": "SCALAR"
    }
  ],
  "asset": {
    "extras": {
      "author": "fongoose (https://sketchfab.com/fongoose)",
      "license": "CC-BY-NC-4.0 (http://creativecommons.org/licenses/by-nc/4.0/)",
      "source": "https://sketchfab.com/3d-models/bulbasaur-64815cda802746b8b1be2e2246db4b35",
      "title": "Bulbasaur"
    },
    "generator": "Sketchfab-12.68.0",
    "version": "2.0"
  },
  "bufferViews": [
    {
      "buffer": 0,
      "byteLength": 6552,
      "name": "floatBufferViews",
      "target": 34963
    },
    {
      "buffer": 0,
      "byteLength": 4336,
      "byteOffset": 6552,
      "byteStride": 8,
      "name": "floatBufferViews",
      "target": 34962
    },
    {
      "buffer": 0,
      "byteLength": 13008,
      "byteOffset": 10888,
      "byteStride": 12,
      "name": "floatBufferViews",
      "target": 34962
    }
  ],
  "buffers": [
    {
      "byteLength": 23896,
      "uri": "scene.bin"
    }
  ],
  "extensionsUsed": [
    "KHR_materials_unlit"
  ],
  "images": [
    {
      "uri": "textures/Default_baseColor.png"
    }
  ],
  "materials": [
    {
      "doubleSided": true,
      "extensions": {
        "KHR_materials_unlit": {}
      },
      "name": "Default",
      "pbrMetallicRoughness": {
        "baseColorTexture": {
          "index": 0
        },
        "metallicFactor": 0.0
      }
    }
  ],
  "meshes": [
    {
      "name": "Object_0",
      "primitives": [
        {
          "attributes": {
            "NORMAL": 1,
            "POSITION": 0,
            "TEXCOORD_0": 2
          },
          "indices": 3,
          "material": 0,
          "mode": 4
        }
      ]
    }
  ],
  "nodes": [
    {
      "children": [
        1
      ],
      "matrix": [
        0.8454089164733887,
        0.0,
        0.0,
        0.0,
        0.0,
        1.8771848885843238e-16,
        -0.8454089164733887,
        0.0,
        0.0,
        0.8454089164733887,
        1.8771848885843238e-16,
        0.0,
        0.0,
        0.0,
        0.0,
        1.0
      ],
      "name": "Sketchfab_model"
    },
    {
      "children": [
        2
      ],
      "name": "Bulbasaur1.obj.cleaner"
    },
    {
      "mesh": 0,
      "name": "Object_2"
    }
  ],
  "samplers": [
    {
      "magFilter": 9729,
      "minFilter": 9987,
      "wrapS": 10497,
      "wrapT": 10497
    }
  ],
  "scene": 0,
  "scenes": [
    {
      "name": "Sketchfab_Scene",
      "nodes": [
        0
      ]
    }
  ],
  "textures": [
    {
      "sampler": 0,
      "source": 0
    }
  ]
}
